<svg fill="none" height="48" viewBox="0 0 48 48" width="48" xmlns="http://www.w3.org/2000/svg" xmlns:xlink="http://www.w3.org/1999/xlink"><mask id="a" height="12" maskUnits="userSpaceOnUse" width="36" x="6" y="18"><path clip-rule="evenodd" d="m6 18.3198h36v11.52h-36z" fill="#fff" fill-rule="evenodd"/></mask><rect fill="#703bd9" height="48" rx="10" width="48"/><g clip-rule="evenodd" fill-rule="evenodd" mask="url(#a)"><path d="m36.2408 18.3198h-24.4816c-3.1808 0-5.7592 2.5939-5.7592 5.7936s2.51144 5.7266 5.6923 5.7266h24.4815c3.1807 0 5.8262-2.5269 5.8262-5.7266s-2.5784-5.7936-5.7592-5.7936z" fill="#fff"/><path d="m36.0148 28.4165c-2.3668 0-4.2921-1.9369-4.2921-4.3179 0-2.3809 1.9253-4.3178 4.2921-4.3178 2.3665 0 4.2921 1.9369 4.2921 4.3178 0 2.381-1.9256 4.3179-4.2921 4.3179z" fill="#7c47e1"/><path d="m36.0153 27.0433c-1.6168 0-2.9274-1.3186-2.9274-2.945 0-1.6265 1.3106-2.945 2.9274-2.945 1.6167 0 2.9275 1.3185 2.9275 2.945 0 1.6264-1.3108 2.945-2.9275 2.945z" fill="#44cb86"/><g fill="#7c47e1"><path d="m11.9796 27.026c-1.605 0-2.91055-1.3135-2.91055-2.928 0-1.6147 1.30555-2.9282 2.91055-2.9282 1.6049 0 2.9106 1.3135 2.9106 2.9282 0 1.6145-1.3057 2.928-2.9106 2.928zm4.2873-2.9282c0-2.3785-1.9234-4.3136-4.2877-4.3136-2.36434 0-4.28779 1.9351-4.28779 4.3136 0 2.3784 1.92345 4.3135 4.28779 4.3135 1.1226 0 2.1453-.4363 2.9105-1.1491v.4565c0 .3824.3084.6926.6887.6926.3802 0 .6885-.3102.6885-.6926v-3.4825c0-.0136-.0005-.0266-.0012-.0388.0007-.0331.0012-.0663.0012-.0996z"/><path d="m21.4837 28.4157c-2.3807 0-4.3177-1.9487-4.3177-4.3436 0-2.3953 1.937-4.3436 4.3177-4.3436 1.0676 0 2.0927.3951 2.8859 1.1125.2845.2574.3078.6979.0522.9842-.2559.2864-.694.3096-.9783.0523-.5388-.4871-1.2348-.7553-1.9598-.7553-1.6168 0-2.9323 1.3232-2.9323 2.9499 0 1.6265 1.3155 2.9499 2.9323 2.9499.7256 0 1.4219-.2686 1.9607-.7563.2843-.2576.7224-.2343.9782.0517.256.2861.2329.7266-.0513.9842-.7937.7183-1.8191 1.1141-2.8876 1.1141z"/><path d="m31.7822 27.1513-3.7158-3.136 3.7158-3.0712c.2928-.244.3334-.6807.0906-.9753-.2428-.2945-.6771-.3352-.9697-.091l-4.0259 3.3584v-2.8251c0-.3827-.3083-.6927-.6887-.6927-.3802 0-.6885.31-.6885.6927v7.2733c0 .3826.3083.6928.6885.6928.3804 0 .6887-.3102.6887-.6928v-2.8252l4.0259 3.3585c.1287.1072.2843.1595.4393.1595.1977 0 .3942-.0854.5304-.2505.2428-.2945.2022-.7312-.0906-.9754z"/></g></g></svg>