<svg width="33" height="32" viewBox="0 0 33 32" fill="none" xmlns="http://www.w3.org/2000/svg">
<path d="M21.5333 18.873H10.8633V20.373H21.5333V18.873Z" fill="white"/>
<path d="M28.3625 20.4027H26.6625V18.9027H28.3625C28.4029 18.9033 28.4421 18.8896 28.4733 18.8639C28.5044 18.8383 28.5254 18.8024 28.5325 18.7627L28.9625 16.4027C28.966 16.362 28.9586 16.321 28.941 16.2841C28.9235 16.2472 28.8964 16.2157 28.8625 16.1927C26.9425 15.0527 22.4825 14.3727 22.4325 14.3627C22.2963 14.3398 22.1686 14.2811 22.0625 14.1927C20.6078 12.8931 19.038 11.7283 17.3725 10.7127C15.0484 10.401 12.692 10.4178 10.3725 10.7627C9.42253 11.2861 8.59164 12.0012 7.93254 12.8627C7.65735 13.2271 7.31857 13.5388 6.93254 13.7827C6.51225 13.9407 6.07071 14.0351 5.62254 14.0627C5.29254 14.0627 4.89254 14.1527 4.38254 14.2427C3.87254 14.3327 3.94254 14.3227 3.98254 16.0527C3.98254 16.4227 3.98254 16.8327 3.98254 17.2927C3.94626 17.8246 4.00036 18.3588 4.14255 18.8727C4.2019 18.8851 4.26318 18.8851 4.32254 18.8727H5.73254V20.3727H4.33254C3.98463 20.3914 3.64011 20.2961 3.35132 20.1012C3.06254 19.9062 2.84527 19.6224 2.73254 19.2927C2.54244 18.6441 2.46797 17.9671 2.51254 17.2927C2.51254 16.8427 2.51254 16.4427 2.51254 16.0927C2.51254 14.4027 2.44254 13.0927 4.15254 12.7727C4.69254 12.6727 5.15254 12.6227 5.47254 12.5727C5.76019 12.5513 6.04495 12.5011 6.32254 12.4227L6.82254 11.8627C7.64237 10.7832 8.70876 9.91565 9.93254 9.33268C11.0625 8.97268 16.4625 8.81268 17.9325 9.33268C19.0225 9.71268 22.0225 12.1827 22.9325 12.9527C23.9325 13.1127 27.7525 13.7927 29.6825 14.9527C29.9805 15.1314 30.2174 15.3961 30.362 15.7121C30.5066 16.028 30.5521 16.3804 30.4925 16.7227L30.0625 19.0827C29.9822 19.4688 29.767 19.8137 29.4555 20.0555C29.144 20.2974 28.7565 20.4205 28.3625 20.4027Z" fill="white"/>
<path d="M22.5523 14.3432H22.4423C20.5123 14.0732 11.7323 14.1432 11.6523 14.1432C11.4534 14.1432 11.2627 14.0641 11.122 13.9235C10.9814 13.7828 10.9023 13.5921 10.9023 13.3932C10.9023 13.196 10.98 13.0067 11.1185 12.8663C11.257 12.726 11.4452 12.6458 11.6423 12.6432C12.0123 12.6432 20.6423 12.5732 22.6423 12.8632C22.7399 12.8754 22.834 12.907 22.9192 12.9561C23.0044 13.0051 23.079 13.0707 23.1386 13.1489C23.1981 13.2271 23.2415 13.3164 23.2662 13.4116C23.2909 13.5067 23.2964 13.6059 23.2823 13.7032C23.2563 13.8791 23.1686 14.04 23.0349 14.1572C22.9012 14.2745 22.7301 14.3404 22.5523 14.3432Z" fill="white"/>
<path d="M8.28313 22.6425C7.40341 22.6425 6.55943 22.2944 5.9355 21.6742C5.31158 21.0541 4.95841 20.2122 4.95312 19.3325C4.95841 18.4528 5.31158 17.6109 5.9355 16.9907C6.55943 16.3706 7.40341 16.0225 8.28313 16.0225C8.71912 16.0212 9.15109 16.1057 9.5544 16.2714C9.9577 16.437 10.3244 16.6804 10.6337 16.9878C10.9429 17.2952 11.1885 17.6604 11.3566 18.0627C11.5246 18.465 11.6118 18.8965 11.6131 19.3325C11.6118 19.7685 11.5246 20.1999 11.3566 20.6022C11.1885 21.0045 10.9429 21.3698 10.6337 21.6771C10.3244 21.9845 9.9577 22.228 9.5544 22.3936C9.15109 22.5592 8.71912 22.6438 8.28313 22.6425ZM8.28313 17.5225C8.04412 17.5212 7.80719 17.5669 7.58588 17.6572C7.36456 17.7474 7.16319 17.8804 6.99326 18.0485C6.82332 18.2166 6.68816 18.4165 6.59548 18.6368C6.50281 18.8571 6.45443 19.0935 6.45312 19.3325C6.45443 19.5715 6.50281 19.8079 6.59548 20.0282C6.68816 20.2485 6.82332 20.4484 6.99326 20.6165C7.16319 20.7846 7.36456 20.9175 7.58588 21.0078C7.80719 21.098 8.04412 21.1438 8.28313 21.1425C8.52213 21.1438 8.75905 21.098 8.98037 21.0078C9.20169 20.9175 9.40307 20.7846 9.573 20.6165C9.74293 20.4484 9.87809 20.2485 9.97076 20.0282C10.0634 19.8079 10.1118 19.5715 10.1131 19.3325C10.1118 19.0935 10.0634 18.8571 9.97076 18.6368C9.87809 18.4165 9.74293 18.2166 9.573 18.0485C9.40307 17.8804 9.20169 17.7474 8.98037 17.6572C8.75905 17.5669 8.52213 17.5212 8.28313 17.5225Z" fill="white"/>
<path d="M24.0924 22.6425C23.6543 22.6464 23.2197 22.5639 22.8135 22.3996C22.4073 22.2352 22.0375 21.9924 21.7254 21.6849C21.4133 21.3774 21.1649 21.0113 20.9945 20.6076C20.8241 20.204 20.735 19.7706 20.7324 19.3325C20.7377 18.4528 21.0909 17.6109 21.7148 16.9907C22.3387 16.3706 23.1827 16.0225 24.0624 16.0225C24.4984 16.0212 24.9304 16.1057 25.3337 16.2714C25.737 16.437 26.1037 16.6804 26.4129 16.9878C26.7222 17.2952 26.9678 17.6604 27.1359 18.0627C27.3039 18.465 27.3911 18.8965 27.3924 19.3325C27.3898 20.2078 27.0416 21.0467 26.4236 21.6666C25.8056 22.2865 24.9677 22.6372 24.0924 22.6425ZM24.0924 17.5225C23.8534 17.5212 23.6165 17.5669 23.3952 17.6572C23.1739 17.7474 22.9725 17.8804 22.8026 18.0485C22.6326 18.2166 22.4975 18.4165 22.4048 18.6368C22.3121 18.8571 22.2637 19.0935 22.2624 19.3325C22.2637 19.5715 22.3121 19.8079 22.4048 20.0282C22.4975 20.2485 22.6326 20.4484 22.8026 20.6165C22.9725 20.7846 23.1739 20.9175 23.3952 21.0078C23.6165 21.098 23.8534 21.1438 24.0924 21.1425C24.3314 21.1438 24.5684 21.098 24.7897 21.0078C25.011 20.9175 25.2124 20.7846 25.3823 20.6165C25.5522 20.4484 25.6874 20.2485 25.7801 20.0282C25.8727 19.8079 25.9211 19.5715 25.9224 19.3325C25.9211 19.0935 25.8727 18.8571 25.7801 18.6368C25.6874 18.4165 25.5522 18.2166 25.3823 18.0485C25.2124 17.8804 25.011 17.7474 24.7897 17.6572C24.5684 17.5669 24.3314 17.5212 24.0924 17.5225Z" fill="white"/>
</svg>
