<svg width="32" height="32" viewBox="0 0 32 32" fill="none" xmlns="http://www.w3.org/2000/svg">
<path d="M16.0637 31.9359C24.9003 31.9359 32.0637 24.7725 32.0637 15.9359C32.0637 7.09939 24.9003 -0.0640564 16.0637 -0.0640564C7.22716 -0.0640564 0.0637207 7.09939 0.0637207 15.9359C0.0637207 24.7725 7.22716 31.9359 16.0637 31.9359Z" fill="#F0F0F6"/>
<path d="M16 8.63992C17.9997 8.63992 18.2492 8.64728 19.0337 8.68408C19.8176 8.72088 20.3512 8.8438 20.8208 9.02632C21.3065 9.21327 21.7157 9.46645 22.1249 9.87493C22.4992 10.2429 22.7888 10.6879 22.9736 11.1791C23.1553 11.648 23.279 12.1823 23.3158 12.9661C23.3504 13.7507 23.36 14.0002 23.36 15.9999C23.36 17.9996 23.3526 18.2491 23.3158 19.0337C23.279 19.8176 23.1553 20.3512 22.9736 20.8207C22.7893 21.3122 22.4997 21.7574 22.1249 22.1249C21.7569 22.499 21.3119 22.7886 20.8208 22.9735C20.3519 23.1553 19.8176 23.279 19.0337 23.3158C18.2492 23.3504 17.9997 23.3599 16 23.3599C14.0002 23.3599 13.7507 23.3526 12.9662 23.3158C12.1823 23.279 11.6487 23.1553 11.1792 22.9735C10.6877 22.7891 10.2426 22.4995 9.87496 22.1249C9.50064 21.7571 9.21104 21.312 9.02635 20.8207C8.84383 20.3519 8.72091 19.8176 8.68411 19.0337C8.64952 18.2491 8.63995 17.9996 8.63995 15.9999C8.63995 14.0002 8.64731 13.7507 8.68411 12.9661C8.72091 12.1816 8.84383 11.6487 9.02635 11.1791C9.21053 10.6876 9.50019 10.2424 9.87496 9.87493C10.2427 9.50048 10.6878 9.21086 11.1792 9.02632C11.6487 8.8438 12.1816 8.72088 12.9662 8.68408C13.7507 8.64949 14.0002 8.63992 16 8.63992ZM16 12.3199C15.024 12.3199 14.0879 12.7076 13.3978 13.3978C12.7077 14.0879 12.32 15.0239 12.32 15.9999C12.32 16.9759 12.7077 17.9119 13.3978 18.6021C14.0879 19.2922 15.024 19.6799 16 19.6799C16.976 19.6799 17.912 19.2922 18.6021 18.6021C19.2922 17.9119 19.68 16.9759 19.68 15.9999C19.68 15.0239 19.2922 14.0879 18.6021 13.3978C17.912 12.7076 16.976 12.3199 16 12.3199V12.3199ZM20.784 12.1359C20.784 11.8919 20.687 11.6579 20.5145 11.4854C20.342 11.3129 20.108 11.2159 19.864 11.2159C19.62 11.2159 19.3859 11.3129 19.2134 11.4854C19.0409 11.6579 18.944 11.8919 18.944 12.1359C18.944 12.3799 19.0409 12.6139 19.2134 12.7865C19.3859 12.959 19.62 13.0559 19.864 13.0559C20.108 13.0559 20.342 12.959 20.5145 12.7865C20.687 12.6139 20.784 12.3799 20.784 12.1359ZM16 13.7919C16.5856 13.7919 17.1472 14.0246 17.5612 14.4386C17.9753 14.8527 18.208 15.4143 18.208 15.9999C18.208 16.5855 17.9753 17.1471 17.5612 17.5612C17.1472 17.9753 16.5856 18.2079 16 18.2079C15.4144 18.2079 14.8527 17.9753 14.4387 17.5612C14.0246 17.1471 13.792 16.5855 13.792 15.9999C13.792 15.4143 14.0246 14.8527 14.4387 14.4386C14.8527 14.0246 15.4144 13.7919 16 13.7919V13.7919Z" fill="#36354C"/>
</svg>