<svg width="32" height="32" viewBox="0 0 32 32" fill="none" xmlns="http://www.w3.org/2000/svg">
<path d="M32 16C32 24.8421 24.8421 32 16 32C7.1579 32 0 24.8421 0 16C0 7.1579 7.1579 0 16 0C24.8421 0 32 7.1579 32 16Z" fill="#F0F0F6"/>
<path d="M24.3041 17.2865V23.2748H20.8421V17.6842C20.8421 16.2807 20.3509 15.3216 19.0878 15.3216C18.1287 15.3216 17.5673 15.9766 17.31 16.5848C17.2164 16.8187 17.193 17.1228 17.193 17.4269V23.2514H13.731C13.731 23.2514 13.7778 13.7778 13.731 12.8187H17.193V14.2924L17.1696 14.3158H17.193V14.2924C17.6609 13.5906 18.4796 12.5614 20.3275 12.5614C22.5965 12.5848 24.3041 14.0585 24.3041 17.2865ZM10.0819 7.78946C8.88894 7.78946 8.117 8.56139 8.117 9.59063C8.117 10.5965 8.86555 11.3918 10.0351 11.3918H10.0585C11.2749 11.3918 12.0234 10.5965 12.0234 9.59063C12 8.56139 11.2749 7.78946 10.0819 7.78946ZM8.32753 23.2748H11.7895V12.8187H8.32753V23.2748Z" fill="#36354C"/>
</svg>