<svg width="32" height="32" viewBox="0 0 32 32" fill="none" xmlns="http://www.w3.org/2000/svg">
<path d="M16 32C24.8366 32 32 24.8366 32 16C32 7.16344 24.8366 0 16 0C7.16344 0 0 7.16344 0 16C0 24.8366 7.16344 32 16 32Z" fill="#F0F0F6"/>
<path d="M8.95901 21.8012C10.3625 22.6901 11.9999 23.2047 13.7777 23.2047C18.7602 23.2047 22.807 19.1579 22.807 14.1755C22.807 14.0585 22.807 13.9182 22.807 13.8012C22.9941 13.6609 24.0935 12.772 24.3742 12.1872C24.3742 12.1872 23.4619 12.5615 22.573 12.655C22.6432 12.6082 23.7894 11.8129 23.9532 10.9006C23.9532 10.9006 23.3216 11.2515 22.4093 11.5322C22.269 11.579 22.1052 11.6258 21.9415 11.6726C21.3567 11.0644 20.538 10.6667 19.6257 10.6667C17.8713 10.6667 16.4678 12.0936 16.4678 13.8246C16.4678 14.0819 16.4912 14.3158 16.5614 14.5498C16.3274 14.5498 12.6081 14.3392 10.0584 11.2749C10.0584 11.2749 8.53796 13.3334 10.9707 15.462C10.9707 15.462 10.2456 15.4386 9.61398 15.0644C9.61398 15.0644 9.38007 17.5673 12.1169 18.1989C12.1169 18.1989 11.5789 18.4094 10.7134 18.2457C10.7134 18.2457 11.2046 20.2574 13.614 20.4445C13.5906 20.4679 11.6725 22.1989 8.95901 21.8012Z" fill="#36354C"/>
</svg>