<svg width="32" height="32" viewBox="0 0 32 32" fill="none" xmlns="http://www.w3.org/2000/svg">
<path d="M16 32C24.8366 32 32 24.8366 32 16C32 7.16344 24.8366 0 16 0C7.16345 0 0 7.16344 0 16C0 24.8366 7.16345 32 16 32Z" fill="#F0F0F6"/>
<path d="M24.2807 11.9298C24.1404 10.7369 23.1579 9.82459 21.9416 9.73102C19.9533 9.59067 17.9884 9.52049 16 9.4971C14.0117 9.4971 12.0468 9.56728 10.0585 9.73102C8.86554 9.82459 7.85969 10.7369 7.71934 11.9298C7.39185 14.6433 7.39185 17.3801 7.71934 20.0936C7.85969 21.2866 8.84215 22.1989 10.0585 22.2924C12.0468 22.4328 14.0117 22.5029 16 22.5029C17.9884 22.5029 19.9533 22.4328 21.9416 22.2924C23.1345 22.1989 24.1404 21.2866 24.2807 20.0936C24.6082 17.3801 24.6082 14.6433 24.2807 11.9298ZM18.5497 16.2807L14.4562 18.5263C14.2457 18.6433 13.9883 18.4796 13.9883 18.2456V13.7544C13.9883 13.5205 14.2457 13.3567 14.4562 13.4737L18.5497 15.7193C18.7837 15.8597 18.7837 16.1638 18.5497 16.2807Z" fill="#36354C"/>
</svg>