<svg width="32" height="32" viewBox="0 0 32 32" fill="none" xmlns="http://www.w3.org/2000/svg">
<path d="M16 32C24.8366 32 32 24.8366 32 16C32 7.16344 24.8366 0 16 0C7.16344 0 0 7.16344 0 16C0 24.8366 7.16344 32 16 32Z" fill="#F0F0F6"/>
<path d="M16.8654 25.0059V17.0761H19.5321L19.9297 13.9884H16.8654V12.0235C16.8654 11.1346 17.1227 10.5264 18.3859 10.5264H20.0233V7.74275C19.228 7.64919 18.4327 7.62579 17.6373 7.62579C15.2748 7.62579 13.6607 9.07609 13.6607 11.696V13.965H11.0175V17.0761H13.6841V25.0059H16.8654Z" fill="#36354C"/>
</svg>