<svg width="44" height="16" viewBox="0 0 44 16" fill="none" xmlns="http://www.w3.org/2000/svg">
<path d="M21.3727 2.58677e-05C21.8105 -0.00178535 22.2389 0.131343 22.6039 0.382575C22.9689 0.633807 23.254 0.99186 23.4232 1.41146C23.5923 1.83105 23.6379 2.29334 23.5542 2.73988C23.4705 3.18641 23.2613 3.59712 22.9529 3.92008C22.6446 4.24304 22.251 4.46374 21.822 4.55427C21.3929 4.6448 20.9477 4.6011 20.5425 4.42868C20.1374 4.25627 19.7906 3.9629 19.5459 3.58566C19.3012 3.20842 19.1697 2.76425 19.1679 2.30933C19.1679 1.70003 19.3996 1.11542 19.8126 0.682861C20.2255 0.250305 20.7863 0.00486799 21.3727 2.58677e-05Z" fill="#F99D1C"/>
<path d="M5.7792 15.8655H0.333557V14.0303H0.736829C1.00175 14.0303 1.093 13.8743 1.093 13.6204V7.95265C1.093 7.69572 1.00175 7.54279 0.736829 7.54279H0.333557V5.67087H5.24346V7.25833C5.94404 6.23367 6.8595 5.45676 8.31952 5.45676C10.2535 5.45676 10.901 6.2612 11.1248 7.45103C11.4354 6.84897 11.8972 6.34561 12.4611 5.99446C13.025 5.64332 13.67 5.4575 14.3274 5.45676C16.7794 5.45676 17.115 6.68024 17.115 8.4971V13.6265C17.115 13.8804 17.2239 14.0364 17.5271 14.0364H17.8391V15.8716H12.4876V14.0364H12.6319C12.8791 14.0364 12.988 13.8804 12.988 13.6265V8.96508C12.988 8.12394 12.7114 7.85477 12.1462 7.85477C11.3985 7.85477 11.1542 8.4971 11.1542 9.48811V13.6082C11.1542 13.8804 11.266 14.0364 11.5133 14.0364H11.7341V15.8716H6.52981V14.0364H6.67994C6.91837 14.0364 7.03022 13.8804 7.03022 13.6265V8.96508C7.03022 8.12394 6.75353 7.85477 6.18836 7.85477C5.44069 7.85477 5.19931 8.4971 5.19931 9.48811V13.6082C5.19931 13.8804 5.29351 14.0364 5.55549 14.0364H5.7792V15.8655Z" fill="#F99D1C"/>
<path d="M19.3349 7.95263C19.3349 7.6957 19.2436 7.54277 18.9787 7.54277H18.5695V5.67085H23.4412V13.6234C23.4412 13.8957 23.5354 14.0517 23.7973 14.0517H24.1623V15.8869H18.5695V14.0517H18.9728C19.2377 14.0517 19.329 13.8957 19.329 13.6418L19.3349 7.95263Z" fill="#F99D1C"/>
<path d="M30.4729 15.8655H25.0273V14.0303H25.4306C25.6925 14.0303 25.7867 13.8743 25.7867 13.6205V7.95271C25.7867 7.69578 25.6925 7.54284 25.4306 7.54284H25.0273V5.67093H29.893V7.27674C30.2499 6.71509 30.7357 6.25461 31.3066 5.93688C31.8776 5.61915 32.5157 5.45417 33.1634 5.45682C35.4329 5.45682 35.9244 6.68029 35.9244 8.49715V13.6266C35.9244 13.8804 36.0157 14.0364 36.3159 14.0364H36.6456V15.8716H31.2206V14.0364H31.4443C31.6857 14.0364 31.8005 13.8804 31.8005 13.6266V8.96513C31.8005 8.12399 31.5061 7.85483 30.9586 7.85483C30.4111 7.85483 29.893 8.3014 29.893 9.29241V13.6082C29.8856 13.6652 29.8907 13.7232 29.908 13.7779C29.9253 13.8325 29.9543 13.8823 29.9929 13.9236C30.0315 13.9648 30.0786 13.9964 30.1306 14.016C30.1827 14.0355 30.2383 14.0425 30.2934 14.0364H30.4729V15.8655Z" fill="#F99D1C"/>
<path d="M36.5429 5.67099L37.9912 5.61287L38.1648 3.29439H41.8414V5.67099H43.5751V7.58267H41.8414V12.2013C41.8414 13.4064 42.0651 13.7979 43.3397 13.7979H43.6664V15.8656C42.858 15.9578 42.0453 16.0027 41.232 16.0002C38.9096 16.0002 37.7351 15.2508 37.7351 13.2474V7.58267H36.5576L36.5429 5.67099Z" fill="#F99D1C"/>
</svg>
